<?xml version="1.0" encoding="UTF-8"?>
<svg version="1.1" xmlns="http://www.w3.org/2000/svg" width="500" height="500">
<path d="M0 0 C2.09314816 -0.00217082 4.18575431 -0.02033264 6.27880859 -0.03930664 C45.54424216 -0.20554079 82.11952519 16.31608784 109.99365234 43.62280273 C119.61524635 53.30783582 127.54447073 63.51967415 134.40917969 75.32592773 C135.3798554 76.99019299 136.38202054 78.63599884 137.38818359 80.27905273 C144.76142168 92.92840025 149.82260443 107.80363428 152.49365234 122.18530273 C152.67605469 123.13469727 152.85845703 124.0840918 153.04638672 125.06225586 C154.58154769 133.8663769 154.85256257 142.53051619 154.80615234 151.43530273 C154.80341812 152.52646896 154.80341812 152.52646896 154.80062866 153.63967896 C154.7550316 164.45212477 154.21767269 174.67211577 151.49365234 185.18530273 C151.3220459 185.8957373 151.15043945 186.60617187 150.97363281 187.33813477 C147.22662225 202.81841166 141.59648182 217.44314139 133.49365234 231.18530273 C132.83365234 231.18530273 132.17365234 231.18530273 131.49365234 231.18530273 C131.36796875 232.00321289 131.36796875 232.00321289 131.23974609 232.83764648 C130.24319062 235.97340481 128.5305889 238.12355162 126.55615234 240.74780273 C124.4735357 243.53344424 122.42327164 246.2908738 120.49365234 249.18530273 C119.83365234 249.18530273 119.17365234 249.18530273 118.49365234 249.18530273 C118.22552734 249.76280273 117.95740234 250.34030273 117.68115234 250.93530273 C116.46436045 253.24080316 115.19031355 255.20586466 113.49365234 257.18530273 C112.83365234 257.18530273 112.17365234 257.18530273 111.49365234 257.18530273 C111.24615234 257.76795898 110.99865234 258.35061523 110.74365234 258.95092773 C109.30839788 261.51644509 107.71702222 263.02255071 105.49365234 264.93530273 C104.79240234 265.54889648 104.09115234 266.16249023 103.36865234 266.79467773 C101.49365234 268.18530273 101.49365234 268.18530273 99.49365234 268.18530273 C99.49365234 268.84530273 99.49365234 269.50530273 99.49365234 270.18530273 C97.26019372 272.02994062 95.02806556 273.74548023 92.68115234 275.43530273 C91.99770752 275.9311084 91.3142627 276.42691406 90.61010742 276.93774414 C85.1346004 280.84964484 79.5182932 284.18230838 73.49365234 287.18530273 C72.72279297 287.60038086 71.95193359 288.01545898 71.15771484 288.44311523 C49.85434867 299.69638839 26.66382823 304.62167872 2.68115234 304.49780273 C1.98187622 304.49664459 1.2826001 304.49548645 0.56213379 304.49429321 C-10.08289181 304.45949462 -20.1389974 303.76519635 -30.50634766 301.18530273 C-32.03001953 300.86045898 -32.03001953 300.86045898 -33.58447266 300.52905273 C-72.02803072 291.89467071 -105.78905653 266.73657809 -126.78369141 233.63452148 C-141.75018311 209.42018711 -149.67193536 183.51156172 -149.74658203 154.93432617 C-149.75620519 152.71811163 -149.7872611 150.5028599 -149.81884766 148.28686523 C-149.89254233 138.22631804 -148.67234855 129.01377892 -146.50634766 119.18530273 C-146.27318848 118.02740234 -146.0400293 116.86950195 -145.79980469 115.67651367 C-139.927481 86.68871761 -123.14804123 61.78208121 -102.50634766 41.18530273 C-101.70068359 40.36803711 -100.89501953 39.55077148 -100.06494141 38.70874023 C-73.39477145 13.19814289 -36.52010281 -0.00422198 0 0 Z M-68.50634766 87.18530273 C-70.57765984 87.51403672 -72.64926585 87.84092588 -74.72119141 88.16577148 C-76.60855614 88.48093755 -78.49532452 88.79970519 -80.38134766 89.12280273 C-81.61195923 89.32244629 -81.61195923 89.32244629 -82.86743164 89.52612305 C-88.32467249 90.55355767 -93.36082665 92.35198838 -97.50634766 96.18530273 C-99.17811266 100.98099174 -99.09960578 106.40552837 -97.50634766 111.18530273 C-96.84634766 111.18530273 -96.18634766 111.18530273 -95.50634766 111.18530273 C-95.17634766 112.17530273 -94.84634766 113.16530273 -94.50634766 114.18530273 C-89.32576843 117.56009211 -83.03757352 116.60693871 -77.23681641 115.41577148 C-75.72168416 115.07165954 -74.20739993 114.72379887 -72.69384766 114.37280273 C-23.50097952 103.95362559 31.11405777 106.94189225 77.49365234 127.18530273 C78.12996582 127.46051758 78.7662793 127.73573242 79.421875 128.01928711 C92.31938764 133.59817038 92.31938764 133.59817038 95.49365234 135.18530273 C99.50163324 135.83017135 103.04991544 136.05261234 106.60693359 133.91577148 C109.04073516 131.84477263 111.05575873 130.06108996 112.49365234 127.18530273 C112.90872409 120.86884405 112.90872409 120.86884405 110.49365234 115.18530273 C109.83365234 115.18530273 109.17365234 115.18530273 108.49365234 115.18530273 C108.49365234 114.52530273 108.49365234 113.86530273 108.49365234 113.18530273 C86.19298623 102.1751453 63.63675109 93.53279963 39.24365234 88.56030273 C38.29329102 88.36605713 37.34292969 88.17181152 36.36376953 87.97167969 C33.08018551 87.33078804 29.79167773 86.74756702 26.49365234 86.18530273 C25.74598602 86.05715179 24.9983197 85.92900085 24.22799683 85.79696655 C10.78571364 83.54291345 -2.32352592 82.65690528 -15.94384766 82.74780273 C-17.36577927 82.7513678 -17.36577927 82.7513678 -18.81643677 82.75500488 C-35.68776341 82.82071599 -51.87302041 84.26944971 -68.50634766 87.18530273 Z M-65.81884766 138.49780273 C-67.01574219 138.69825195 -68.21263672 138.89870117 -69.44580078 139.10522461 C-76.08104522 140.28474247 -82.73835672 141.50593872 -88.50634766 145.18530273 C-90.97888237 148.8941048 -91.16011715 151.88551104 -90.50634766 156.18530273 C-89.18473339 159.25404171 -89.18473339 159.25404171 -86.50634766 161.18530273 C-80.39960948 162.43965976 -75.79665808 161.91485558 -69.81884766 160.37280273 C-68.22318721 159.99227776 -66.62682479 159.61468468 -65.02978516 159.23999023 C-63.86914551 158.96493652 -63.86914551 158.96493652 -62.68505859 158.68432617 C-45.98105451 154.85835303 -28.55845145 154.84620865 -11.50634766 155.18530273 C-10.78979004 155.19787109 -10.07323242 155.21043945 -9.33496094 155.22338867 C15.66459666 155.7914287 40.38994293 162.8942159 62.87646484 173.58374023 C65.85474546 174.9024174 68.292424 175.74933779 71.49365234 176.18530273 C71.49365234 176.84530273 71.49365234 177.50530273 71.49365234 178.18530273 C76.51118011 181.19581939 79.78142584 181.91066483 85.49365234 181.18530273 C89.13550215 178.62825925 90.27157437 176.96257565 91.49365234 172.68530273 C91.49365234 168.63732546 90.86375823 167.40044637 88.49365234 164.18530273 C77.20004923 155.581501 62.61616055 151.14481223 49.49365234 146.18530273 C48.77564453 145.90525391 48.05763672 145.62520508 47.31787109 145.33666992 C26.57363029 137.26825205 3.91246329 134.99138098 -18.16894531 135.05493164 C-20.37132705 135.06027841 -22.57350341 135.05495915 -24.77587891 135.04858398 C-38.66197685 135.03915782 -52.13030484 136.0328161 -65.81884766 138.49780273 Z M-84.50634766 192.18530273 C-84.50634766 193.17530273 -84.50634766 194.16530273 -84.50634766 195.18530273 C-85.16634766 195.18530273 -85.82634766 195.18530273 -86.50634766 195.18530273 C-86.22208874 198.8806686 -85.95869626 201.50677983 -83.88134766 204.62280273 C-79.84936601 207.27542224 -75.60328149 206.36812504 -70.99072266 205.59936523 C-69.75837891 205.33897461 -68.52603516 205.07858398 -67.25634766 204.81030273 C-25.32079601 196.60054271 19.38400006 199.23282526 56.05615234 222.68530273 C60.00954902 225.11714002 62.77533642 226.12896592 67.49365234 225.18530273 C70.09680228 223.83228993 70.09680228 223.83228993 71.49365234 221.18530273 C72.38502743 217.06313915 72.38502743 217.06313915 71.49365234 213.18530273 C63.40259956 203.22875253 46.07586403 197.68772843 34.49365234 193.18530273 C33.31931641 192.69932617 32.14498047 192.21334961 30.93505859 191.71264648 C25.42437061 189.65736156 19.69314604 188.66041231 13.93115234 187.56030273 C12.83351563 187.34374023 11.73587891 187.12717773 10.60498047 186.90405273 C2.64859876 185.35018434 -5.10226333 184.037613 -13.22900391 183.94702148 C-13.95959518 183.93740891 -14.69018646 183.92779633 -15.44291687 183.91789246 C-17.81827509 183.89316431 -20.19337547 183.88061091 -22.56884766 183.87280273 C-23.38204468 183.86951965 -24.1952417 183.86623657 -25.03308105 183.862854 C-56.08881149 183.13975622 -56.08881149 183.13975622 -84.50634766 192.18530273 Z " fill="#1ED45F" transform="translate(247.50634765625,97.814697265625)"/>
<path d="M0 0 C1.04644 3.43057909 1.12079519 6.56876873 1.11352539 10.14550781 C1.11344986 11.38649231 1.11337433 12.62747681 1.11329651 13.90606689 C1.10819031 15.25508667 1.10297432 16.60410604 1.09765625 17.953125 C1.09579024 19.33746286 1.0943672 20.72180138 1.09336853 22.10614014 C1.08955773 25.74261308 1.07973975 29.37904582 1.06866455 33.01550293 C1.0584195 36.72907976 1.05386429 40.4426631 1.04882812 44.15625 C1.03811616 51.43751829 1.02105704 58.7187535 1 66 C-4.56426077 57.65360884 -3.34521282 45.14485525 -3.31567383 35.37182617 C-3.31251794 33.1998443 -3.33606591 31.02923652 -3.36132812 28.85742188 C-3.40375977 18.93387922 -2.15673545 9.67878896 0 0 Z " fill="#28A857" transform="translate(101,217)"/>
<path d="M0 0 C3.15908425 4.73862638 3.15885577 8.8104893 3.16796875 14.3984375 C3.17129715 15.11101715 3.17462555 15.8235968 3.17805481 16.55776978 C3.18310651 18.06226966 3.18546368 19.5667807 3.18530273 21.07128906 C3.1874859 23.36021613 3.2056506 25.64865831 3.22460938 27.9375 C3.22754443 29.4036442 3.22952848 30.86979067 3.23046875 32.3359375 C3.23765427 33.01425629 3.24483978 33.69257507 3.25224304 34.39144897 C3.23209476 38.63063329 2.54169461 42.05659189 1 46 C0.67 46 0.34 46 0 46 C0 30.82 0 15.64 0 0 Z " fill="#219548" transform="translate(399,226)"/>
<path d="M0 0 C-3.54089394 1.08749814 -6.8707086 1.16650005 -10.5625 1.1875 C-11.69816406 1.20167969 -12.83382812 1.21585937 -14.00390625 1.23046875 C-17 1 -17 1 -20 -1 C-22.40443838 -1.28986445 -22.40443838 -1.28986445 -25.11401367 -1.22705078 C-26.15486618 -1.22689972 -27.19571869 -1.22674866 -28.26811218 -1.22659302 C-29.95104118 -1.21110916 -29.95104118 -1.21110916 -31.66796875 -1.1953125 C-32.81791824 -1.1924826 -33.96786774 -1.18965271 -35.15266418 -1.18673706 C-38.83104796 -1.17552833 -42.50918962 -1.15042224 -46.1875 -1.125 C-48.67903295 -1.11497111 -51.1705697 -1.1058451 -53.66210938 -1.09765625 C-59.77482241 -1.07558673 -65.88739391 -1.04210224 -72 -1 C-68.16517996 -3.09286445 -64.74385233 -3.43669567 -60.4375 -3.625 C-59.69371094 -3.66222168 -58.94992188 -3.69944336 -58.18359375 -3.73779297 C-38.57443854 -4.62429019 -19.18174205 -4.43944248 0 0 Z " fill="#1B7337" transform="translate(268,256)"/>
<path d="M0 0 C0.93045933 2.55144824 1.08564091 3.74006478 0.22265625 6.359375 C-0.35162109 7.54273438 -0.35162109 7.54273438 -0.9375 8.75 C-1.31777344 9.54921875 -1.69804688 10.3484375 -2.08984375 11.171875 C-2.39019531 11.77515625 -2.69054687 12.3784375 -3 13 C-3.66 13 -4.32 13 -5 13 C-5.1134375 13.71027344 -5.226875 14.42054688 -5.34375 15.15234375 C-6.049384 18.21429131 -7.14533777 20.73109843 -8.5 23.5625 C-9.9955716 26.69711374 -11.29438561 29.59220325 -12 33 C-12.66 33 -13.32 33 -14 33 C-13.690625 34.299375 -13.690625 34.299375 -13.375 35.625 C-12.95382846 39.41554384 -13.39978174 41.55953073 -15 45 C-16.485 45.495 -16.485 45.495 -18 46 C-16.98432496 29.41064103 -8.15148679 14.08809297 0 0 Z " fill="#1C8040" transform="translate(120,170)"/>
<path d="M0 0 C1.02673828 -0.00064453 2.05347656 -0.00128906 3.11132812 -0.00195312 C14.80831107 0.07588524 26.42515667 1.07126503 38.0625 2.1875 C38.5575 3.6725 38.5575 3.6725 39.0625 5.1875 C36.68721849 5.04546663 34.31234749 4.89898388 31.9375 4.75 C31.27234375 4.71068359 30.6071875 4.67136719 29.921875 4.63085938 C27.03226282 4.44671742 24.21203999 4.21520061 21.36328125 3.6875 C17.35527861 3.08037061 13.43054409 2.95800406 9.3828125 2.87109375 C8.57004852 2.85031265 7.75728455 2.82953156 6.91989136 2.80812073 C4.34250743 2.74312421 1.76502806 2.68397407 -0.8125 2.625 C-2.56771791 2.58176723 -4.32292643 2.53815148 -6.078125 2.49414062 C-10.36448738 2.38749451 -14.65094504 2.28608886 -18.9375 2.1875 C-18.9375 1.8575 -18.9375 1.5275 -18.9375 1.1875 C-12.59550221 0.25375474 -6.40682916 -0.00421779 0 0 Z " fill="#299C51" transform="translate(234.9375,178.8125)"/>
<path d="M0 0 C8.1863462 7.15360715 12.02265827 20.18615361 15.5 30.125 C15.85022217 31.12047852 16.20044434 32.11595703 16.5612793 33.14160156 C18.07437879 37.61272868 19.1997946 41.23787454 19 46 C13.86141304 39.70108696 13.86141304 39.70108696 13.9375 34.375 C13.95103516 33.14910156 13.95103516 33.14910156 13.96484375 31.8984375 C13.97644531 31.27195313 13.98804688 30.64546875 14 30 C13.34 30 12.68 30 12 30 C11.7525 28.96875 11.505 27.9375 11.25 26.875 C10.174543 23.05712766 8.23157795 20.27763012 6 17 C5.31039038 15.00779443 4.63920943 13.00894394 4 11 C3.34 10.34 2.68 9.68 2 9 C1.875 6.375 1.875 6.375 2 4 C1.34 4 0.68 4 0 4 C0 2.68 0 1.36 0 0 Z " fill="#1B793C" transform="translate(379,170)"/>
<path d="M0 0 C2.10696905 0.42379834 4.21053527 0.8645403 6.3125 1.3125 C7.48425781 1.55613281 8.65601563 1.79976562 9.86328125 2.05078125 C12.95795925 2.98727783 13.97822067 3.61533721 16 6 C18.10332891 6.71447643 18.10332891 6.71447643 20 7 C20 7.66 20 8.32 20 9 C22.64 9.66 25.28 10.32 28 11 C28 12.65 28 14.3 28 16 C28.66 16 29.32 16 30 16 C30.33 19.96 30.66 23.92 31 28 C30.01 28.33 29.02 28.66 28 29 C28.01160156 28.32453125 28.02320313 27.6490625 28.03515625 26.953125 C28.04417969 26.06109375 28.05320312 25.1690625 28.0625 24.25 C28.07410156 23.36828125 28.08570313 22.4865625 28.09765625 21.578125 C28.00826198 19.2181162 27.66912821 17.25501476 27 15 C26.34 15 25.68 15 25 15 C25 14.34 25 13.68 25 13 C24.20207031 12.75121094 23.40414063 12.50242188 22.58203125 12.24609375 C18.18728578 10.71727826 13.94937378 8.92514732 9.6875 7.0625 C8.86443359 6.71509766 8.04136719 6.36769531 7.19335938 6.00976562 C6.41154297 5.66751953 5.62972656 5.32527344 4.82421875 4.97265625 C3.75820435 4.51258179 3.75820435 4.51258179 2.6706543 4.04321289 C1 3 1 3 0 0 Z " fill="#187537" transform="translate(331,198)"/>
<path d="M0 0 C0.66 0.33 1.32 0.66 2 1 C1.44140444 7.03758602 0.52516225 12.66964541 -1.125 18.5 C-1.33729248 19.26103027 -1.54958496 20.02206055 -1.76831055 20.80615234 C-4.1862971 29.13924887 -7.5149412 37.06571628 -11 45 C-12.0546875 43.203125 -12.0546875 43.203125 -13 41 C-12.125 37.75 -12.125 37.75 -11 35 C-10.34 35 -9.68 35 -9 35 C-8.855625 34.4225 -8.71125 33.845 -8.5625 33.25 C-8.04166667 31.16666667 -7.52083333 29.08333333 -7 27 C-6.34 27 -5.68 27 -5 27 C-5.05994141 25.72962891 -5.05994141 25.72962891 -5.12109375 24.43359375 C-4.98815903 20.66425123 -4.17931961 17.65937454 -3.0625 14.0625 C-1.61161265 9.36661728 -0.59240994 4.88270506 0 0 Z " fill="#1E7E3E" transform="translate(398,273)"/>
<path d="M0 0 C2.09314816 -0.00217082 4.18575431 -0.02033264 6.27880859 -0.03930664 C29.01145445 -0.13616253 29.01145445 -0.13616253 35.49365234 4.18530273 C29.05294764 4.29185851 22.86723945 4.14735362 16.49365234 3.18530273 C16.49365234 2.52530273 16.49365234 1.86530273 16.49365234 1.18530273 C15.51307861 1.23074219 15.51307861 1.23074219 14.51269531 1.27709961 C-9.51014927 2.37538334 -9.51014927 2.37538334 -21.50634766 2.18530273 C-21.50634766 1.85530273 -21.50634766 1.52530273 -21.50634766 1.18530273 C-14.35514081 0.03039207 -7.2275034 -0.00083555 0 0 Z " fill="#08491C" transform="translate(247.50634765625,97.814697265625)"/>
<path d="M0 0 C0.66 0 1.32 0 2 0 C2 3.3 2 6.6 2 10 C1.01 10.495 1.01 10.495 0 11 C-0.33 11.99 -0.66 12.98 -1 14 C-3.56893838 15.28446919 -5.76576337 15.32977144 -8.625 15.5625 C-9.62789063 15.64628906 -10.63078125 15.73007812 -11.6640625 15.81640625 C-12.43492187 15.87699219 -13.20578125 15.93757813 -14 16 C-14.268125 15.19691406 -14.53625 14.39382813 -14.8125 13.56640625 C-15.204375 12.71949219 -15.59625 11.87257813 -16 11 C-17.98723268 10.29618843 -19.98777953 9.6288189 -22 9 C-23.375 6.875 -23.375 6.875 -24 5 C-20.66994606 6.14470604 -18.00567969 7.64663438 -15.125 9.625 C-11.30286498 12.06712029 -8.59098549 12.72015459 -4 12 C-1.81420702 10.36581044 -1.09495921 9.41970523 -0.48828125 6.73828125 C-0.43027344 5.93777344 -0.37226563 5.13726562 -0.3125 4.3125 C-0.24675781 3.50425781 -0.18101562 2.69601562 -0.11328125 1.86328125 C-0.07589844 1.24839844 -0.03851563 0.63351562 0 0 Z " fill="#1C8440" transform="translate(319,310)"/>
<path d="M0 0 C-7.31819173 4.00758119 -15.73986956 5.47654599 -24 5 C-24 5.66 -24 6.32 -24 7 C-27.3 7 -30.6 7 -34 7 C-34 6.34 -34 5.68 -34 5 C-30.79199093 4.35254908 -27.58353661 3.70733107 -24.375 3.0625 C-23.47136719 2.88009766 -22.56773437 2.69769531 -21.63671875 2.50976562 C-14.30900659 1.0388745 -7.48537131 -0.12905813 0 0 Z " fill="#24924B" transform="translate(200,208)"/>
<path d="M0 0 C8.37937098 4.85121478 15.04607424 12.45836071 21 20 C20.67 20.66 20.34 21.32 20 22 C19.01 22 18.02 22 17 22 C16.73646729 21.40832031 16.47293457 20.81664062 16.20141602 20.20703125 C14.95002984 17.90820357 13.66951643 16.48146488 11.77734375 14.6875 C11.15666016 14.08679688 10.53597656 13.48609375 9.89648438 12.8671875 C8.58844655 11.62044357 7.278542 10.37565526 5.96679688 9.1328125 C5.34740234 8.53210938 4.72800781 7.93140625 4.08984375 7.3125 C3.52128662 6.77238281 2.95272949 6.23226562 2.36694336 5.67578125 C0.83361518 3.79602333 0.40548537 2.36904099 0 0 Z " fill="#23944B" transform="translate(348,134)"/>
<path d="M0 0 C0 3.60800902 -0.37635632 6.75271264 -2 10 C-1.34 10.33 -0.68 10.66 0 11 C-1.32 11.33 -2.64 11.66 -4 12 C-4 11.01 -4 10.02 -4 9 C-4.88042969 8.96261719 -5.76085937 8.92523438 -6.66796875 8.88671875 C-7.82941406 8.82097656 -8.99085938 8.75523437 -10.1875 8.6875 C-11.33605469 8.62949219 -12.48460937 8.57148438 -13.66796875 8.51171875 C-17.17035341 7.97383787 -19.19576551 7.13882292 -22 5 C-22 4.34 -22 3.68 -22 3 C-22.66 2.67 -23.32 2.34 -24 2 C-21.48721087 2.41879819 -19.36121821 2.80749894 -17.1015625 4.01171875 C-13.48517151 5.71236358 -9.89878134 5.69356559 -6 5 C-3.55107009 3.5685481 -2.0057686 2.05719856 0 0 Z " fill="#1EA14C" transform="translate(358,227)"/>
<path d="M0 0 C0.268125 0.556875 0.53625 1.11375 0.8125 1.6875 C1.99088683 4.07880579 1.99088683 4.07880579 3.625 6.5 C5 9 5 9 5 13 C5.66 13 6.32 13 7 13 C7.66 15.31 8.32 17.62 9 20 C9.66 20 10.32 20 11 20 C11.66 23.3 12.32 26.6 13 30 C9.86757585 26.86757585 8.02296812 23.68365862 6 19.8125 C5.46934937 18.80255981 5.46934937 18.80255981 4.92797852 17.7722168 C-1.61032911 5.1688186 -1.61032911 5.1688186 0 0 Z " fill="#1D7F3E" transform="translate(108,300)"/>
<path d="M0 0 C1.56814453 0.13341797 1.56814453 0.13341797 3.16796875 0.26953125 C4.20566406 0.34558594 5.24335938 0.42164063 6.3125 0.5 C9.61752901 1.13215574 11.5090838 2.33889628 14.35546875 4.08203125 C16.50364566 4.65629636 18.67348455 5.15379136 20.85546875 5.58203125 C25.30996714 6.4562786 28.57443556 7.54253135 32.35546875 10.08203125 C29.0731058 11.17615223 28.53902463 11.04969275 25.43359375 9.97265625 C24.27597534 9.58424561 24.27597534 9.58424561 23.0949707 9.18798828 C22.27343506 8.90552246 21.45189941 8.62305664 20.60546875 8.33203125 C12.25546066 5.56337386 4.02642211 3.55959281 -4.64453125 2.08203125 C-2.64453125 0.08203125 -2.64453125 0.08203125 0 0 Z " fill="#1C7F3E" transform="translate(288.64453125,184.91796875)"/>
<path d="M0 0 C11.2872939 -0.65328389 21.12210704 1.23736052 32 4 C28.08049902 6.78490859 24.21387984 5.81114407 19.75 5.125 C19.00492187 5.02058594 18.25984375 4.91617188 17.4921875 4.80859375 C15.65985489 4.55018787 13.82967766 4.27657918 12 4 C12 3.34 12 2.68 12 2 C10.046875 2.06510417 8.09375 2.13020833 6.140625 2.1953125 C3.69844025 1.97248542 2.11363229 1.20915 0 0 Z " fill="#21924A" transform="translate(259,209)"/>
<path d="M0 0 C-6.47556028 3.35769792 -12.42296199 4.69256367 -19.5859375 5.6796875 C-24.85177671 6.50717652 -28.50710524 8.11933133 -33 11 C-33 9.68 -33 8.36 -33 7 C-32.01 7 -31.02 7 -30 7 C-30 6.34 -30 5.68 -30 5 C-29.0821875 4.80664062 -28.164375 4.61328125 -27.21875 4.4140625 C-19.38250905 2.77717808 -19.38250905 2.77717808 -11.625 0.8125 C-7.56206525 -0.09815779 -4.14686444 -0.1481023 0 0 Z " fill="#259E4F" transform="translate(184,183)"/>
<path d="M0 0 C0.33 0 0.66 0 1 0 C1.01981934 0.8971875 1.03963867 1.794375 1.06005859 2.71875 C1.13864761 6.08114397 1.22535471 9.4431329 1.31738281 12.80517578 C1.35541616 14.25398848 1.39031137 15.70288739 1.421875 17.15185547 C1.58822328 24.69471033 1.90537448 31.70259495 4 39 C4.1953125 42.1875 4.1953125 42.1875 4.125 45 C4.10695313 45.94875 4.08890625 46.8975 4.0703125 47.875 C4.03550781 48.926875 4.03550781 48.926875 4 50 C-2.05226302 40.92160547 -0.24376128 26.76733761 -0.125 16.1875 C-0.11493897 14.60872971 -0.1058187 13.02995313 -0.09765625 11.45117188 C-0.07591564 7.63395547 -0.04156265 3.81704991 0 0 Z " fill="#0E5623" transform="translate(98,233)"/>
<path d="M0 0 C2.31 0 4.62 0 7 0 C3.73728683 2.17514212 0.50262318 3.30321549 -3.1875 4.5 C-3.86151855 4.72067139 -4.53553711 4.94134277 -5.22998047 5.16870117 C-18.18192073 9.36362995 -18.18192073 9.36362995 -24 9 C-24 8.34 -24 7.68 -24 7 C-20.535 6.505 -20.535 6.505 -17 6 C-17 5.34 -17 4.68 -17 4 C-15.78763672 3.80083984 -15.78763672 3.80083984 -14.55078125 3.59765625 C-13.48214844 3.42105469 -12.41351563 3.24445313 -11.3125 3.0625 C-10.25675781 2.88847656 -9.20101563 2.71445312 -8.11328125 2.53515625 C-5.39750396 2.06832879 -2.69875765 1.55577384 0 1 C0 0.67 0 0.34 0 0 Z " fill="#1E7C3F" transform="translate(299,391)"/>
<path d="M0 0 C10.13797993 0.9430679 19.89116603 4.57503673 29 9 C25.93109813 10.53445094 23.29905734 9.54984289 20 9 C20 8.34 20 7.68 20 7 C19.071875 6.87625 18.14375 6.7525 17.1875 6.625 C16.5584375 6.53089844 15.929375 6.43679687 15.28125 6.33984375 C13.57538331 6.08571635 11.86644202 5.85207691 10.15625 5.62890625 C9.1765625 5.48324219 8.196875 5.33757812 7.1875 5.1875 C6.25292969 5.05730469 5.31835938 4.92710938 4.35546875 4.79296875 C2 4 2 4 0.67578125 1.92578125 C0.45277344 1.29027344 0.22976563 0.65476562 0 0 Z " fill="#1F8F46" transform="translate(284,102)"/>
<path d="M0 0 C-0.66 0 -1.32 0 -2 0 C-2.66 1.32 -3.32 2.64 -4 4 C-5.65 4 -7.3 4 -9 4 C-9 4.66 -9 5.32 -9 6 C-11.97 7.65 -14.94 9.3 -18 11 C-18.99 10.34 -19.98 9.68 -21 9 C-16.67476255 6.16080782 -12.27108233 3.52784712 -7.6875 1.125 C-6.86636719 0.69445312 -6.04523438 0.26390625 -5.19921875 -0.1796875 C-3 -1 -3 -1 0 0 Z " fill="#1C8742" transform="translate(191,111)"/>
<path d="M0 0 C0.66 0.33 1.32 0.66 2 1 C-2.52290805 5.82443525 -7.53618615 10.26793732 -13 14 C-13.99 14 -14.98 14 -16 14 C-14.46642041 9.37766153 -10.71292205 7.3643469 -6.875 4.75 C-6.21628906 4.29109375 -5.55757812 3.8321875 -4.87890625 3.359375 C-3.2579995 2.23178769 -1.62970314 1.11483609 0 0 Z " fill="#167334" transform="translate(168,121)"/>
<path d="M0 0 C6.93 0.33 13.86 0.66 21 1 C21.33 1.99 21.66 2.98 22 4 C19.64499052 3.88482579 17.29150927 3.75812022 14.9375 3.625 C13.62652344 3.55539063 12.31554687 3.48578125 10.96484375 3.4140625 C7.01863043 3.00194564 3.75882927 2.20243433 0 1 C0 0.67 0 0.34 0 0 Z " fill="#1E9648" transform="translate(252,180)"/>
<path d="M0 0 C8.50167336 -0.44745649 14.13889878 2.14702597 21 7 C19 8 19 8 17.02880859 7.47094727 C15.8505249 7.02319946 15.8505249 7.02319946 14.6484375 6.56640625 C13.79765625 6.24736328 12.946875 5.92832031 12.0703125 5.59960938 C11.18085938 5.25736328 10.29140625 4.91511719 9.375 4.5625 C8.4778125 4.22412109 7.580625 3.88574219 6.65625 3.53710938 C4.43483339 2.69817012 2.21634729 1.8522225 0 1 C0 0.67 0 0.34 0 0 Z " fill="#1D813E" transform="translate(291,242)"/>
<path d="M0 0 C5.625 -0.25 5.625 -0.25 9 2 C10.98799818 2.70164642 12.98698517 3.37372872 15 4 C15 4.66 15 5.32 15 6 C14.34 6 13.68 6 13 6 C13.33 7.65 13.66 9.3 14 11 C13.360625 10.278125 12.72125 9.55625 12.0625 8.8125 C8.59826616 5.30821721 4.34860108 3.22640796 0 1 C0 0.67 0 0.34 0 0 Z " fill="#1C8742" transform="translate(325,256)"/>
<path d="M0 0 C-0.33 0.66 -0.66 1.32 -1 2 C-1.66 2 -2.32 2 -3 2 C-4.23446068 5.70338204 -4.44981274 9.14660418 -4 13 C-2.6490712 15.9254644 -2.6490712 15.9254644 -1 18 C-1.99 18.33 -2.98 18.66 -4 19 C-6.33972554 15.4904117 -6.34391369 13.59994145 -6.5625 9.4375 C-6.66806962 5.05979334 -6.66806962 5.05979334 -8 1 C-5.29120665 -0.35439668 -2.99066732 -0.06501451 0 0 Z " fill="#1E9E4A" transform="translate(162,241)"/>
<path d="M0 0 C0.625 1.875 0.625 1.875 1 4 C0.34 4.66 -0.32 5.32 -1 6 C-0.67 6.66 -0.34 7.32 0 8 C-4.75 7.25 -4.75 7.25 -7 5 C-6.625 2.875 -6.625 2.875 -6 1 C-4.02 0.67 -2.04 0.34 0 0 Z " fill="#21B657" transform="translate(158,361)"/>
<path d="M0 0 C0.66 0.33 1.32 0.66 2 1 C3.86360591 6.90141871 4.22742222 12.85959995 4 19 C0.7820589 14.17308835 -1.55059748 8.82334531 -0.6875 2.9375 C-0.460625 1.968125 -0.23375 0.99875 0 0 Z " fill="#1F8641" transform="translate(103,282)"/>
<path d="M0 0 C1.04976964 3.14930893 1.10131595 5.38814456 1.0625 8.6875 C1.05347656 9.68136719 1.04445312 10.67523438 1.03515625 11.69921875 C1.02355469 12.45847656 1.01195312 13.21773437 1 14 C1.66 14 2.32 14 3 14 C3.33 15.32 3.66 16.64 4 18 C2.35 18 0.7 18 -1 18 C-1.91216219 14.26285788 -2.01078421 11.13384903 -1.625 7.3125 C-1.53476563 6.35988281 -1.44453125 5.40726563 -1.3515625 4.42578125 C-1 2 -1 2 0 0 Z " fill="#198541" transform="translate(149,195)"/>
<path d="M0 0 C2.12982862 0.36897031 4.2539326 0.77110824 6.375 1.1875 C7.55835938 1.40792969 8.74171875 1.62835938 9.9609375 1.85546875 C13 3 13 3 14.4140625 5.61328125 C14.60742188 6.40089844 14.80078125 7.18851563 15 8 C11.99389694 7.01761338 8.99570432 6.0136219 6 5 C5.01 4.67 4.02 4.34 3 4 C1 3 1 3 0 0 Z " fill="#1F8441" transform="translate(331,198)"/>
<path d="M0 0 C7.12608999 0.29754029 12.6672508 1.71125344 19 5 C14.92151537 6.35949488 11.82319055 5.14486103 7.8125 4.0625 C7.06291016 3.86720703 6.31332031 3.67191406 5.54101562 3.47070312 C3.69206541 2.98785625 1.84576224 2.49489367 0 2 C0 1.34 0 0.68 0 0 Z " fill="#207F41" transform="translate(268,235)"/>
<path d="M0 0 C6.7281627 -0.22262303 12.53991163 0.04978464 19 2 C19 2.33 19 2.66 19 3 C12.55929529 3.10655578 6.37358711 2.96205088 0 2 C0 1.34 0 0.68 0 0 Z " fill="#1D7B3D" transform="translate(264,99)"/>
<path d="M0 0 C2.50109193 0.41684865 4.62611996 0.80059731 6.875 2 C9.24409729 3.11486931 11.15096669 3.39567353 13.75 3.625 C14.54921875 3.69976562 15.3484375 3.77453125 16.171875 3.8515625 C16.77515625 3.90054688 17.3784375 3.94953125 18 4 C14.29640522 6.46906319 11.29576538 6.55995385 7 6 C4 4.625 4 4.625 2 3 C2 2.34 2 1.68 2 1 C1.34 0.67 0.68 0.34 0 0 Z " fill="#1C7F3E" transform="translate(334,229)"/>
<path d="M0 0 C-1.2179755 3.65392651 -2.14396506 3.95831699 -5.4375 5.75 C-6.64212891 6.42289062 -6.64212891 6.42289062 -7.87109375 7.109375 C-8.92490234 7.55023438 -8.92490234 7.55023438 -10 8 C-10.66 7.67 -11.32 7.34 -12 7 C-11.67 6.01 -11.34 5.02 -11 4 C-10.01 4 -9.02 4 -8 4 C-8 3.01 -8 2.02 -8 1 C-5.23735711 0.40267181 -2.83967231 0 0 0 Z " fill="#1F9145" transform="translate(328,379)"/>
<path d="M0 0 C2.31 0 4.62 0 7 0 C7 0.66 7 1.32 7 2 C9.31 2.66 11.62 3.32 14 4 C14 4.99 14 5.98 14 7 C8.547001 5.43181728 4.23513217 3.96189783 0 0 Z " fill="#1E853F" transform="translate(173,381)"/>
<path d="M0 0 C0.89677959 3.15191651 0.8410483 4.84606888 0 8 C0.33 8.66 0.66 9.32 1 10 C0.25 13.0625 0.25 13.0625 -1 16 C-1.99 16.33 -2.98 16.66 -4 17 C-3.45018084 10.95198929 -2.09570426 5.69398894 0 0 Z " fill="#167333" transform="translate(106,199)"/>
<path d="M0 0 C1.98 0 3.96 0 6 0 C6 0.99 6 1.98 6 3 C-2.42857143 5.28571429 -2.42857143 5.28571429 -7 5 C-7 4.34 -7 3.68 -7 3 C-3.535 2.505 -3.535 2.505 0 2 C0 1.34 0 0.68 0 0 Z " fill="#209145" transform="translate(282,395)"/>
<path d="M0 0 C0 3.61137513 -0.92530082 4.74732191 -2.9375 7.6875 C-3.48277344 8.49574219 -4.02804687 9.30398438 -4.58984375 10.13671875 C-5.05519531 10.75160156 -5.52054687 11.36648438 -6 12 C-6.33 12 -6.66 12 -7 12 C-7 10.35 -7 8.7 -7 7 C-6.34 7 -5.68 7 -5 7 C-4.67 5.02 -4.34 3.04 -4 1 C-2.68 0.67 -1.36 0.34 0 0 Z " fill="#1D8B45" transform="translate(378,330)"/>
<path d="M0 0 C-3.02613235 2.01742157 -5.4933142 2.61884552 -8.9921875 3.42578125 C-11.63284518 4.1809888 -13.74714232 5.45116034 -16 7 C-16 5.68 -16 4.36 -16 3 C-15.01 3 -14.02 3 -13 3 C-13 2.34 -13 1.68 -13 1 C-8.59085217 -0.10228696 -4.51617599 -0.07654536 0 0 Z " fill="#1B733A" transform="translate(167,187)"/>
<path d="M0 0 C-4.82687322 2.41343661 -7.59433112 3.11277881 -13.125 3.0625 C-14.40632812 3.05347656 -15.68765625 3.04445312 -17.0078125 3.03515625 C-18.48894531 3.01775391 -18.48894531 3.01775391 -20 3 C-20 2.67 -20 2.34 -20 2 C-13.25846717 0.74158054 -6.86515862 -0.26404456 0 0 Z " fill="#115B26" transform="translate(200,208)"/>
<path d="M0 0 C0.268125 0.556875 0.53625 1.11375 0.8125 1.6875 C1.99088683 4.07880579 1.99088683 4.07880579 3.625 6.5 C5 9 5 9 5 13 C2 12 2 12 1.015625 10.29296875 C0.76296875 9.59816406 0.5103125 8.90335937 0.25 8.1875 C-0.01296875 7.50042969 -0.2759375 6.81335938 -0.546875 6.10546875 C-1.06056958 3.71856031 -0.76282269 2.29362227 0 0 Z " fill="#208843" transform="translate(108,300)"/>
<path d="M0 0 C2.48982535 2.27745789 4.10368997 4.62335238 5.75 7.5625 C6.19859375 8.34753906 6.6471875 9.13257813 7.109375 9.94140625 C7.40328125 10.62074219 7.6971875 11.30007812 8 12 C7.67 12.66 7.34 13.32 7 14 C2.07692308 9.69230769 2.07692308 9.69230769 1.6875 6.1875 C1.790625 5.465625 1.89375 4.74375 2 4 C1.34 4 0.68 4 0 4 C0 2.68 0 1.36 0 0 Z " fill="#187233" transform="translate(379,170)"/>
<path d="M0 0 C-1.05078125 1.45703125 -1.05078125 1.45703125 -3 3 C-6.35546875 3.51171875 -6.35546875 3.51171875 -10.1875 3.6875 C-12.09595703 3.78611328 -12.09595703 3.78611328 -14.04296875 3.88671875 C-15.01878906 3.92410156 -15.99460938 3.96148437 -17 4 C-12.8310355 -0.1689645 -5.63804533 -0.28913053 0 0 Z " fill="#197236" transform="translate(226,100)"/>
<path d="M0 0 C1.37095624 3.69037278 0.60010967 5.70883835 -0.9375 9.25 C-1.31777344 10.14203125 -1.69804687 11.0340625 -2.08984375 11.953125 C-2.39019531 12.62859375 -2.69054687 13.3040625 -3 14 C-4.0546875 12.203125 -4.0546875 12.203125 -5 10 C-4.125 6.75 -4.125 6.75 -3 4 C-2.34 4 -1.68 4 -1 4 C-0.67 2.68 -0.34 1.36 0 0 Z " fill="#228C48" transform="translate(390,304)"/>
<path d="M0 0 C5.01202555 2.98334854 8.38748484 6.43951988 12 11 C9.30472473 9.70293596 6.78518499 8.30921494 4.3125 6.625 C3.71050781 6.22539062 3.10851562 5.82578125 2.48828125 5.4140625 C0.68227922 3.69812356 0.38684419 2.42422357 0 0 Z " fill="#145E2B" transform="translate(348,134)"/>
<path d="M0 0 C4.44280672 -0.21156222 7.9083139 0.19204568 12 2 C12.33 2.99 12.66 3.98 13 5 C8.02693484 4.50269348 4.36200187 3.44697666 0 1 C0 0.67 0 0.34 0 0 Z " fill="#259C4E" transform="translate(203,393)"/>
<path d="M0 0 C0.99 0.33 1.98 0.66 3 1 C3 3.64 3 6.28 3 9 C0.5 6.6875 0.5 6.6875 -2 4 C-2 3.01 -2 2.02 -2 1 C-1.34 0.67 -0.68 0.34 0 0 Z " fill="#1E9147" transform="translate(130,338)"/>
<path d="M0 0 C1.1171875 1.734375 1.1171875 1.734375 2 4 C1.3203125 6.140625 1.3203125 6.140625 0.125 8.25 C-0.26429688 8.95640625 -0.65359375 9.6628125 -1.0546875 10.390625 C-1.36664063 10.92171875 -1.67859375 11.4528125 -2 12 C-2.66 12 -3.32 12 -4 12 C-4 10.02 -4 8.04 -4 6 C-2.68 5.34 -1.36 4.68 0 4 C0 2.68 0 1.36 0 0 Z " fill="#1D8C41" transform="translate(383,317)"/>
<path d="M0 0 C1 2 1 2 0.00390625 5.0390625 C-0.47175781 6.22242188 -0.94742188 7.40578125 -1.4375 8.625 C-1.91058594 9.81351563 -2.38367188 11.00203125 -2.87109375 12.2265625 C-3.24363281 13.14179688 -3.61617188 14.05703125 -4 15 C-4.33 15 -4.66 15 -5 15 C-5.50026167 8.8717946 -4.28177721 5.97238972 -1 1 C-0.67 0.67 -0.34 0.34 0 0 Z " fill="#279650" transform="translate(112,188)"/>
<path d="M0 0 C5.54050113 0.56825653 10.03715966 2.62886517 15 5 C11.93109813 6.53445094 9.29905734 5.54984289 6 5 C6 4.34 6 3.68 6 3 C4.68 3 3.36 3 2 3 C2 2.34 2 1.68 2 1 C1.34 0.67 0.68 0.34 0 0 Z " fill="#187334" transform="translate(298,106)"/>
<path d="M0 0 C3.3 0 6.6 0 10 0 C9.67 0.66 9.34 1.32 9 2 C6.71484375 2.4140625 6.71484375 2.4140625 3.9375 2.625 C3.01839844 2.69976562 2.09929687 2.77453125 1.15234375 2.8515625 C0.44207031 2.90054688 -0.26820313 2.94953125 -1 3 C-0.67 2.01 -0.34 1.02 0 0 Z " fill="#208746" transform="translate(187,233)"/>
<path d="M0 0 C4.571279 0.54855348 8.67435795 1.41744803 13 3 C13 3.33 13 3.66 13 4 C8.17639811 4.19294408 4.50353262 3.75747614 0 2 C0 1.34 0 0.68 0 0 Z " fill="#196F37" transform="translate(299,216)"/>
<path d="M0 0 C0.66 0.33 1.32 0.66 2 1 C1.979375 1.9075 1.95875 2.815 1.9375 3.75 C1.9889755 6.42672588 2.2215017 8.46988052 3 11 C2.01 11 1.02 11 0 11 C-1.16461426 7.50615721 -1.13568319 4.66344611 -1 1 C-0.67 0.67 -0.34 0.34 0 0 Z " fill="#28AD57" transform="translate(160,291)"/>
<path d="M0 0 C0.93423645 3.01031744 1.04449911 3.86650268 0 7 C-2.31 7 -4.62 7 -7 7 C-4.66666667 4.66666667 -2.33333333 2.33333333 0 0 Z " fill="#27BF5D" transform="translate(141,145)"/>
<path d="M0 0 C4.19360449 0.67097672 7.40334352 2.8558394 11 5 C8.45297384 6.27351308 7.5717055 5.80191925 4.875 5.0625 C4.15054687 4.86785156 3.42609375 4.67320313 2.6796875 4.47265625 C2.12539063 4.31667969 1.57109375 4.16070312 1 4 C0.67 2.68 0.34 1.36 0 0 Z " fill="#197736" transform="translate(319,115)"/>
<path d="M0 0 C8.19256018 0.35010941 8.19256018 0.35010941 11.5625 3.0625 C12.036875 3.701875 12.51125 4.34125 13 5 C8.39146203 4.27991594 4.32762591 2.68704061 0 1 C0 0.67 0 0.34 0 0 Z " fill="#1B6E38" transform="translate(274,288)"/>
<path d="M0 0 C4.96916636 0.51405169 9.29026351 1.23384882 14 3 C14 3.33 14 3.66 14 4 C6.57142857 4.14285714 6.57142857 4.14285714 3 3 C3 2.34 3 1.68 3 1 C2.01 0.67 1.02 0.34 0 0 Z " fill="#176F34" transform="translate(269,257)"/>
<path d="M0 0 C1.6744239 0.6469365 3.34302621 1.30959426 5 2 C5 2.33 5 2.66 5 3 C1.37 2.67 -2.26 2.34 -6 2 C-6 1.34 -6 0.68 -6 0 C-3.43417606 -1.28291197 -2.6963913 -0.84743727 0 0 Z " fill="#1E8E46" transform="translate(329,226)"/>
<path d="M0 0 C4.92307692 4.30769231 4.92307692 4.30769231 5.3125 7.8125 C5.209375 8.534375 5.10625 9.25625 5 10 C1.95623822 7.97082548 1.25189126 7.27417715 0 4 C0 2.68 0 1.36 0 0 Z " fill="#22944A" transform="translate(385,183)"/>
<path d="M0 0 C4.29 0 8.58 0 13 0 C13 0.33 13 0.66 13 1 C3.58997722 3.29612756 3.58997722 3.29612756 -1 3 C-0.67 2.01 -0.34 1.02 0 0 Z " fill="#177938" transform="translate(171,236)"/>
<path d="M0 0 C0 0.99 0 1.98 0 3 C-4.22857143 7 -4.22857143 7 -8 7 C-6.86500606 3.70851757 -6.00716624 3.0040131 -2.875 1.25 C-1.92625 0.8375 -0.9775 0.425 0 0 Z " fill="#25904C" transform="translate(160,128)"/>
<path d="M0 0 C3.12290635 0.48578543 5.99580359 0.9986012 9 2 C9.33 2.99 9.66 3.98 10 5 C5.59885603 4.49701212 3.28804981 2.91227269 0 0 Z " fill="#208A44" transform="translate(308,303)"/>
<path d="M0 0 C0.33 0.66 0.66 1.32 1 2 C-1.16798732 7.4770206 -1.16798732 7.4770206 -4.1875 9.375 C-4.785625 9.58125 -5.38375 9.7875 -6 10 C-4.6302836 6.00499382 -2.74277578 3.19990508 0 0 Z " fill="#166C31" transform="translate(129,157)"/>
<path d="M0 0 C-0.66 0 -1.32 0 -2 0 C-2.66 1.32 -3.32 2.64 -4 4 C-5.98 4 -7.96 4 -10 4 C-6.87839899 0.56623888 -4.64008112 -1.54669371 0 0 Z " fill="#167437" transform="translate(191,111)"/>
<path d="M0 0 C1.65 0.33 3.3 0.66 5 1 C5 1.99 5 2.98 5 4 C2.69 4 0.38 4 -2 4 C-2 3.34 -2 2.68 -2 2 C-1.34 2 -0.68 2 0 2 C0 1.34 0 0.68 0 0 Z " fill="#26CD63" transform="translate(291,315)"/>
<path d="M0 0 C0.33 0 0.66 0 1 0 C1.12117187 0.61488281 1.24234375 1.22976562 1.3671875 1.86328125 C1.53476563 2.67152344 1.70234375 3.47976562 1.875 4.3125 C2.03742188 5.11300781 2.19984375 5.91351563 2.3671875 6.73828125 C2.94478999 9.25301118 2.94478999 9.25301118 5 12 C4.01 12.33 3.02 12.66 2 13 C-0.20914 9.68629 -0.22481553 8.6553979 -0.125 4.8125 C-0.10695312 3.91144531 -0.08890625 3.01039063 -0.0703125 2.08203125 C-0.04710937 1.39496094 -0.02390625 0.70789063 0 0 Z " fill="#186C30" transform="translate(156,247)"/>
<path d="M0 0 C0.33 0 0.66 0 1 0 C1.3125 2.75 1.3125 2.75 1 6 C-1.5 8.375 -1.5 8.375 -4 10 C-3.29445932 6.33118845 -1.72264494 3.29549466 0 0 Z " fill="#147034" transform="translate(114,181)"/>
<path d="M0 0 C2.5 2.3125 2.5 2.3125 5 5 C5 5.99 5 6.98 5 8 C4.01 8.66 3.02 9.32 2 10 C1.855625 8.906875 1.71125 7.81375 1.5625 6.6875 C1.11711896 3.06877013 1.11711896 3.06877013 0 0 Z " fill="#1A7B3A" transform="translate(369,156)"/>
<path d="M0 0 C2.31 0 4.62 0 7 0 C4.06171403 2.50298434 1.82097239 3.46930939 -2 4 C-2.33 3.34 -2.66 2.68 -3 2 C-2.01 2 -1.02 2 0 2 C0 1.34 0 0.68 0 0 Z " fill="#208744" transform="translate(308,387)"/>
<path d="M0 0 C-0.33 0.66 -0.66 1.32 -1 2 C-3.06640625 2.4140625 -3.06640625 2.4140625 -5.5625 2.625 C-6.38878906 2.69976562 -7.21507812 2.77453125 -8.06640625 2.8515625 C-9.02353516 2.92503906 -9.02353516 2.92503906 -10 3 C-6.93361469 -0.59474709 -4.63005752 -0.26207873 0 0 Z " fill="#1F7E41" transform="translate(176,285)"/>
<path d="M0 0 C1.33804688 0.17982422 1.33804688 0.17982422 2.703125 0.36328125 C3.37859375 0.47027344 4.0540625 0.57726562 4.75 0.6875 C4.75 1.0175 4.75 1.3475 4.75 1.6875 C1.78 1.6875 -1.19 1.6875 -4.25 1.6875 C-4.25 2.3475 -4.25 3.0075 -4.25 3.6875 C-5.9 3.3575 -7.55 3.0275 -9.25 2.6875 C-6.03037108 -0.23875152 -4.27288159 -0.61844339 0 0 Z " fill="#27C863" transform="translate(182.25,282.3125)"/>
<path d="M0 0 C3.9492568 0.55105909 7.34920174 1.38935371 11 3 C9.02 3.99 9.02 3.99 7 5 C7 4.34 7 3.68 7 3 C5.35 3.33 3.7 3.66 2 4 C2 3.01 2 2.02 2 1 C1.34 0.67 0.68 0.34 0 0 Z " fill="#146930" transform="translate(290,263)"/>
<path d="M0 0 C3.59391114 1.33488128 6.75490696 2.96022723 10 5 C8 6 8 6 5 5.3125 C2 4 2 4 0.625 1.875 C0.41875 1.25625 0.2125 0.6375 0 0 Z " fill="#13602C" transform="translate(295,315)"/>
<path d="M0 0 C6.75 0.75 6.75 0.75 9 3 C6.36 3 3.72 3 1 3 C0.67 2.01 0.34 1.02 0 0 Z " fill="#1C7F3A" transform="translate(316,222)"/>
<path d="M0 0 C1.32 0 2.64 0 4 0 C3.1875 1.9375 3.1875 1.9375 2 4 C1.01 4.33 0.02 4.66 -1 5 C-1 5.66 -1 6.32 -1 7 C-1.66 6.67 -2.32 6.34 -3 6 C-2.67 5.34 -2.34 4.68 -2 4 C-1.34 4 -0.68 4 0 4 C0 2.68 0 1.36 0 0 Z " fill="#229347" transform="translate(348,361)"/>
<path d="M0 0 C0.99 0.33 1.98 0.66 3 1 C3 3.31 3 5.62 3 8 C0.9375 6.25 0.9375 6.25 -1 4 C-0.75 1.75 -0.75 1.75 0 0 Z " fill="#1E9648" transform="translate(136,346)"/>
<path d="M0 0 C0.33 1.32 0.66 2.64 1 4 C-4.75 2.25 -4.75 2.25 -7 0 C-4.3333581 -1.33332095 -2.83319697 -0.67102033 0 0 Z " fill="#1B8541" transform="translate(307,299)"/>
<path d="M0 0 C0.66 0.33 1.32 0.66 2 1 C2 1.66 2 2.32 2 3 C3.65 3.33 5.3 3.66 7 4 C6.67 4.66 6.34 5.32 6 6 C3.69 5.34 1.38 4.68 -1 4 C-1 1 -1 1 0 0 Z " fill="#29D065" transform="translate(303,185)"/>
<path d="M0 0 C4.05606165 0.46800711 7.46588679 0.87953208 11 3 C8.36 3 5.72 3 3 3 C3 2.34 3 1.68 3 1 C2.01 0.67 1.02 0.34 0 0 Z " fill="#12632B" transform="translate(259,302)"/>
<path d="M0 0 C3.82097239 0.53069061 6.06171403 1.49701566 9 4 C6 5 6 5 3.8125 4.0625 C3.214375 3.711875 2.61625 3.36125 2 3 C2 2.34 2 1.68 2 1 C1.34 0.67 0.68 0.34 0 0 Z " fill="#166C34" transform="translate(334,229)"/>
<path d="M0 0 C2.97 0.495 2.97 0.495 6 1 C6 2.32 6 3.64 6 5 C5.01 5 4.02 5 3 5 C3 4.34 3 3.68 3 3 C2.34 3 1.68 3 1 3 C0.67 2.01 0.34 1.02 0 0 Z " fill="#229B4F" transform="translate(353,208)"/>
<path d="M0 0 C1.875 0.25 1.875 0.25 4 1 C5.25 3.0625 5.25 3.0625 6 5 C4.35 4.67 2.7 4.34 1 4 C0.67 2.68 0.34 1.36 0 0 Z " fill="#219D4F" transform="translate(340,201)"/>
</svg>
